<svg
                    xmlns="http://www.w3.org/2000/svg"
                    width="37"
                    height="37"
                    viewBox="0 0 37 37"
                    fill="none"
                  >
                    <rect
                      x="0.912109"
                      y="0.687744"
                      width="35.9325"
                      height="35.9325"
                      rx="17.9662"
                      fill="#FF482F"
                    />
                    <path
                      d="M25.8287 20.9389C26.5745 20.1708 26.8597 19.2491 26.7061 18.1737C26.5964 17.3618 26.1358 16.7253 25.5654 16.1547C23.7667 14.3332 21.9679 12.5336 20.1473 10.7121C19.1382 9.70261 17.9756 9.41732 16.6156 9.90015C15.2994 10.361 14.4439 11.4144 14.422 12.7312C14.3781 14.6843 14.4 18.6127 14.4 18.6127C14.4 20.2586 14.4 21.9046 14.4 23.5506C14.4 24.0772 14.4 24.6259 14.5097 25.1306C15.08 27.6544 18.3266 28.4665 20.0814 26.6667C22.0118 24.7575 23.9422 22.8701 25.8287 20.9389Z"
                      fill="white"
                    />
                  </svg>